<?xml version="1.0" encoding="utf-8"?>
<!-- Generator: Adobe Illustrator 18.1.1, SVG Export Plug-In . SVG Version: 6.00 Build 0)  -->
<svg version="1.1" id="Слой_1" xmlns="http://www.w3.org/2000/svg" xmlns:xlink="http://www.w3.org/1999/xlink" x="0px" y="0px"
	 viewBox="0 0 32.2 32.2" enable-background="new 0 0 32.2 32.2" xml:space="preserve">
<g>
	<circle fill="#6E243E" cx="16.1" cy="16.1" r="16.1"/>
	<path fill="#E6DFE0" d="M14.1,7.4l-0.7-3.1c-1.5,0.4-3,1-4.4,2C3.7,10.1,2.5,17.7,6.4,23s11.4,6.6,16.8,2.7
		c5-3.7,6.4-10.5,3.3-15.8l1.3-1.4l-6.8-1.6l2,6.7l1.1-1.3c1.7,3.7,0.6,8.3-2.9,10.8c-3.9,2.9-9.5,2-12.3-2s-2-9.5,2-12.3
		C11.9,8.1,13,7.6,14.1,7.4z"/>
</g>
</svg>
