<?xml version="1.0" encoding="utf-8"?>
<!-- Generator: Adobe Illustrator 18.1.1, SVG Export Plug-In . SVG Version: 6.00 Build 0)  -->
<svg version="1.1" id="Слой_1" xmlns="http://www.w3.org/2000/svg" xmlns:xlink="http://www.w3.org/1999/xlink" x="0px" y="0px"
	 viewBox="0 0 120.8 40" enable-background="new 0 0 120.8 40" xml:space="preserve">
<rect y="0" fill="#6E243E" stroke="#706B58" stroke-miterlimit="10" width="120.8" height="40"/>
<g>
	<path fill="#E6DFE0" d="M39,13.6v2.3h-2.7v-2.4c0-2.3-0.9-3.6-3-3.6c-2,0-3,1.4-3,3.6v13.3c0,2.3,0.9,3.6,3,3.6c2.1,0,3-1.4,3-3.6
		v-3.3H39v3.1c0,3.8-1.8,6.3-5.7,6.3c-3.9,0-5.7-2.5-5.7-6.3v-13c0-3.8,1.8-6.3,5.7-6.3C37.2,7.2,39,9.7,39,13.6z"/>
	<path fill="#E6DFE0" d="M45.4,32.7V10h-4.6V7.5h12.1V10h-4.6v22.6H45.4z"/>
	<path fill="#E6DFE0" d="M57.8,27.6l-1,5.1h-2.6L59,7.5h4.1l4.8,25.2h-2.8l-1-5.1H57.8z M58.1,25.2h5.6l-2.8-14.5L58.1,25.2z"/>
	<path fill="#E6DFE0" d="M75.6,7.5c4,0,5.7,2.3,5.7,6.2v3c0,4-1.9,6.1-5.9,6.1h-2.5v9.9h-2.8V7.5H75.6z M75.4,20.2
		c2.1,0,3.1-1,3.1-3.4v-3.3c0-2.3-0.8-3.5-2.9-3.5h-2.7v10.2H75.4z"/>
	<path fill="#E6DFE0" d="M87.3,32.7V10h-4.6V7.5h12.1V10h-4.6v22.6H87.3z"/>
</g>
</svg>
