<?xml version="1.0" encoding="utf-8"?>
<!-- Generator: Adobe Illustrator 18.1.1, SVG Export Plug-In . SVG Version: 6.00 Build 0)  -->
<svg version="1.1" id="Слой_1" xmlns="http://www.w3.org/2000/svg" xmlns:xlink="http://www.w3.org/1999/xlink" x="0px" y="0px"
	 viewBox="0 268.3 595.3 305.2" enable-background="new 0 268.3 595.3 305.2" xml:space="preserve">
<rect y="268.3" fill="#6E243E" width="595.3" height="305.2"/>
<g>
	<g>
		<path fill="#E5DEDF" d="M134.8,374.8v16.8h-19.5v-17.8c0-16.8-6.6-26.9-21.6-26.9c-14.8,0-21.6,10.1-21.6,26.9v98.4
			c0,16.8,6.8,26.9,21.6,26.9c15,0,21.6-10.1,21.6-26.9v-24.2h19.5v23.1c0,28.2-13.2,46.8-41.6,46.8c-28.2,0-41.4-18.6-41.4-46.8
			v-96.3c0-28.2,13.2-46.8,41.4-46.8C121.6,327.9,134.8,346.6,134.8,374.8z"/>
		<path fill="#E5DEDF" d="M181.7,516V348.7h-34v-18.9h88.5v18.9h-34V516H181.7z"/>
		<path fill="#E5DEDF" d="M272.3,478.5l-7.1,37.5h-19l35.3-186.2h29.8L346.6,516H326l-7.1-37.5H272.3z M274.9,460.7H316l-20.8-107.5
			L274.9,460.7z"/>
		<path fill="#E5DEDF" d="M403,329.8c29,0,41.4,17.3,41.4,45.5v22.3c0,29.5-13.7,45-42.9,45h-18.2V516h-20.5V329.8H403z M401.4,424
			c15.3,0,22.7-7.2,22.7-25v-24.7c0-17-6.1-25.5-21.1-25.5h-19.8V424H401.4z"/>
		<path fill="#E5DEDF" d="M488.6,516V348.7h-34v-18.9h88.5v18.9h-34V516H488.6z"/>
	</g>
</g>
</svg>
