<?xml version="1.0" encoding="utf-8"?>
<!-- Generator: Adobe Illustrator 18.1.1, SVG Export Plug-In . SVG Version: 6.00 Build 0)  -->
<svg version="1.1" id="Слой_1" xmlns="http://www.w3.org/2000/svg" xmlns:xlink="http://www.w3.org/1999/xlink" x="0px" y="0px"
	 viewBox="0 268.3 595.3 305.2" enable-background="new 0 268.3 595.3 305.2" xml:space="preserve">
<g>
	<rect y="268.3" fill="#6E243E" width="595.3" height="305.2"/>
	<g enable-background="new    ">
		<path fill="#E6DFE0" d="M71.7,348.4v167H51.9V329.6H135v185.9h-19.8v-167H71.7z"/>
		<path fill="#E6DFE0" d="M175.3,478l-6.8,37.4h-18.2l34-185.9h28.6l33.9,185.9H227l-6.8-37.4H175.3z M177.8,460.2h39.5l-20-107.3
			L177.8,460.2z"/>
		<path fill="#E6DFE0" d="M315.4,474.5c-6.1,27.9-15.2,42.7-47.4,41.2v-18.6c15.2,0.8,22-4.2,25.3-18.3l4.1-12.2l-40.8-137h19.8
			l18,64.5l12.2,46.7l10.4-46.7l16-64.5h20.5L315.4,474.5z"/>
		<path fill="#E6DFE0" d="M446.6,374.4v4.8c0,19.1-7.3,32.9-21.8,38.5c14.9,5.3,21.8,19.6,21.8,38.2v14.6c0,28.1-12.7,46.7-40,46.7
			c-27.1,0-39.8-18.6-39.8-46.7v-18.1h18.5v19.1c0,16.7,6.6,26.8,20.8,26.8c14.4,0,20.8-9.8,20.8-28.4v-14.6
			c0-18.1-7.9-27.6-22.8-27.6h-8.4v-18.6h9.4c13.2,0,21.8-9.3,21.8-25.5v-8.5c0-19.1-6.3-28.7-20.8-28.7
			c-14.2,0-20.8,10.1-20.8,26.8v12.5h-18.2v-11.7c0-28.4,12.4-46.5,39.5-46.5C433.9,327.7,446.6,346.3,446.6,374.4z"/>
		<path fill="#E6DFE0" d="M485.9,478l-6.8,37.4h-18.2l33.9-185.9h28.6l33.9,185.9h-19.8l-6.8-37.4H485.9z M488.4,460.2h39.5
			l-20-107.3L488.4,460.2z"/>
	</g>
</g>
</svg>
